#!OML:ASF G:\JayActor3\Patient Classification 1\Patient 1\Session 6\male.ASF
:FULLY-SPECIFIED
:DEGREES
1006
root -30.4845 17.2112 11.3989 182.235 -34.2876 -177.603
lowerback 5.20821 -5.38945 -5.64081
upperback -3.81615 -7.72341 0.402689
thorax -6.11399 -3.58558 4.30864
lowerneck 0.428933 -4.70949 -3.2619
upperneck 4.68535 -6.68516 6.00609
head 1.74933 -3.36481 2.36866
rclavicle 3.83654e-014 -3.97569e-015
rhumerus -37.2571 -6.67174 -50.4681
rradius 30.9803
rwrist 1.72866
rhand -15.8097 -14.4503
rfingers 7.12502
rthumb 10.3837 -44.1739
lclavicle 3.83654e-014 -3.97569e-015
lhumerus 6.83302 -5.55538 49.4972
lradius 49.5135
lwrist 23.9716
lhand -20.8367 11.9115
lfingers 7.12502
lthumb 5.53203 41.8193
rfemur -37.4765 -1.8565 22.4402
rtibia 34.654
rfoot -33.497 -21.8896
rtoes -13.4815
lfemur 17.3558 -2.06466 -16.9313
ltibia 6.36111e-015
lfoot 0.231356 45.5949
ltoes -24.0127
1007
root -30.5176 17.1721 11.3118 182.659 -34.5764 -178.234
lowerback 5.17599 -5.50358 -5.92354
upperback -3.79808 -7.90697 0.256692
thorax -6.04209 -3.67175 4.31859
lowerneck 0.708952 -4.73963 -3.35075
upperneck 4.29497 -6.702 6.01643
head 1.57875 -3.37904 2.39747
rclavicle -8.55768e-014 -3.02153e-014
rhumerus -37.5334 -6.8224 -50.3869
rradius 31.1943
rwrist 1.59731
rhand -16.1 -14.4211
rfingers 7.12502
rthumb 10.1037 -44.1586
lclavicle -8.55768e-014 -3.02153e-014
lhumerus 7.50417 -6.52449 50.6535
lradius 50.0944
lwrist 23.885
lhand -20.6081 11.7706
lfingers 7.12502
lthumb 5.75274 41.6725
rfemur -37.1293 -0.886574 21.5929
rtibia 33.4553
rfoot -34.6893 -22.193
rtoes -13.5119
lfemur 17.6362 -1.88881 -17.3104
ltibia -4.77083e-014
lfoot -0.542385 45.1425
ltoes -23.8965
1008
root -30.5514 17.129 11.2221 183.1 -34.8588 -178.922
lowerback 5.14163 -5.60252 -6.22771
upperback -3.77071 -8.072 0.0993835
thorax -5.95946 -3.74912 4.32544
lowerneck 0.994331 -4.78087 -3.47743
upperneck 3.86006 -6.7339 6.06983
head 1.39809 -3.40093 2.4482
rclavicle -1.10698e-013 -1.74931e-014
rhumerus -37.8466 -6.97816 -50.3058
rradius 31.4294
rwrist 1.42617
rhand -16.4203 -14.4031
rfingers 7.12502
rthumb 9.79469 -44.1553
lclavicle -1.10698e-013 -1.74931e-014
lhumerus 8.08305 -7.51504 51.8714
lradius 50.7074
lwrist 23.8297
lhand -20.4341 11.6404
lfingers 7.12502
lthumb 5.92068 41.5377
rfemur -36.8137 -0.0910994 20.7686
rtibia 32.5517
rfoot -35.8115 -22.304
rtoes -13.6903
lfemur 17.9487 -1.71529 -17.7302
ltibia -9.54166e-015
lfoot -1.27923 44.6895
ltoes -23.7931
1009
root -30.5856 17.0828 11.1302 183.552 -35.1279 -179.656
lowerback 5.10977 -5.68332 -6.54303
upperback -3.73913 -8.21423 -0.0658386
thorax -5.8756 -3.81552 4.32789
lowerneck 1.22943 -4.84811 -3.53216
upperneck 3.43322 -6.79763 6.06034
head 1.22568 -3.43692 2.46406
rclavicle 5.46658e-014 4.05521e-014
rhumerus -38.2011 -7.1264 -50.2271
rradius 31.6786
rwrist 1.21917
rhand -16.7623 -14.405
rfingers 7.12502
rthumb 9.46466 -44.1725
lclavicle 5.46658e-014 4.05521e-014
lhumerus 8.56113 -8.53539 53.1533
lradius 51.3462
lwrist 23.8152
lhand -20.3028 11.5191
lfingers 7.12502
lthumb 6.04748 41.4128
rfemur -36.4988 0.514167 19.9923
rtibia 31.9284
rfoot -36.8164 -22.2333
rtoes -13.7925
lfemur 18.2901 -1.53885 -18.1731
ltibia -1.90833e-014
lfoot -1.96992 44.2262
ltoes -23.7028
1010
root -30.6195 17.0341 11.0361 184.021 -35.3612 -180.43
lowerback 5.07988 -5.74276 -6.8746
upperback -3.71022 -8.33032 -0.23653
thorax -5.79708 -3.86875 4.3316
lowerneck 1.44679 -4.91997 -3.62763
upperneck 3.00792 -6.8703 6.09051
head 1.06144 -3.47729 2.50062
rclavicle -1.05406e-013 -1.43125e-014
rhumerus -38.5865 -7.25089 -50.1605
rradius 31.9309
rwrist 0.977054
rhand -17.1095 -14.4383
rfingers 7.12502
rthumb 9.12972 -44.2207
lclavicle -1.05406e-013 -1.43125e-014
lhumerus 8.92221 -9.58244 54.4967
lradius 52.0102
lwrist 23.8564
lhand -20.2364 11.4185
lfingers 7.12502
lthumb 6.1116 41.3104
rfemur -36.1584 0.936686 19.2757
rtibia 31.5531
rfoot -37.5793 -22.1191
rtoes -13.8713
lfemur 18.6545 -1.33852 -18.6316
ltibia 1.27222e-014
lfoot -2.61463 43.7402
ltoes -23.6181
1011
root -30.6521 16.9832 10.9394 184.499 -35.5189 -181.247
lowerback 5.0567 -5.76717 -7.23802
upperback -3.68349 -8.4042 -0.417311
thorax -5.72681 -3.90023 4.33992
lowerneck 1.5786 -4.99662 -3.67647
upperneck 2.65225 -6.94973 6.06838
head 0.930921 -3.51885 2.50895
rclavicle 1.29409e-013 9.54166e-015
rhumerus -39.0016 -7.36637 -50.1091
rradius 32.1726
rwrist 0.727021
rhand -17.4405 -14.4749
rfingers 7.12502
rthumb 8.81031 -44.271
lclavicle 1.29409e-013 9.54166e-015
lhumerus 9.16503 -10.6812 55.8766
lradius 52.6996
lwrist 23.9816
lhand -20.1811 11.3307
lfingers 7.12502
lthumb 6.16502 41.221
rfemur -35.7505 1.25086 18.6024
rtibia 31.3773
rfoot -38.1085 -22.0228
rtoes -13.7174
lfemur 19.0527 -1.07772 -19.1022
ltibia 3.18055e-014
lfoot -3.1877 43.2179
ltoes -23.5698
1012
root -30.683 16.9305 10.84 184.993 -35.6048 -182.099
lowerback 5.0304 -5.76427 -7.62996
upperback -3.66325 -8.44565 -0.606174
thorax -5.66312 -3.91506 4.35299
lowerneck 1.68021 -5.06908 -3.74925
upperneck 2.32322 -7.02687 6.07587
head 0.816481 -3.55895 2.53075
rclavicle 7.73024e-014 1.19271e-014
rhumerus -39.4302 -7.46764 -50.0864
rradius 32.3906
rwrist 0.489048
rhand -17.7525 -14.5289
rfingers 7.12502
rthumb 8.50923 -44.3374
lclavicle 7.73024e-014 1.19271e-014
lhumerus 9.27872 -11.833 57.271
lradius 53.4131
lwrist 24.1907
lhand -20.1192 11.2527
lfingers 7.12502
lthumb 6.22476 41.1412
rfemur -35.258 1.54762 17.9449
rtibia 31.3515
rfoot -38.4538 -22.0414
rtoes -13.264
lfemur 19.4717 -0.761624 -19.5737
ltibia -6.36111e-015
lfoot -3.66111 42.65
ltoes -23.5172
1013
root -30.7135 16.8769 10.7386 185.519 -35.6809 -182.983
lowerback 4.99097 -5.76202 -8.02359
upperback -3.65563 -8.48939 -0.800284
thorax -5.60592 -3.93142 4.36074
lowerneck 1.682 -5.1368 -3.76598
upperneck 2.08581 -7.09762 6.01326
head 0.74286 -3.59332 2.51553
rclavicle -4.56459e-014 -1.11319e-014
rhumerus -39.8492 -7.54331 -50.0939
rradius 32.5676
rwrist 0.273661
rhand -18.023 -14.5717
rfingers 7.12502
rthumb 8.24811 -44.3907
lclavicle -4.56459e-014 -1.11319e-014
lhumerus 9.25832 -13.0184 58.6668
lradius 54.1373
lwrist 24.431
lhand -19.9413 11.1541
lfingers 7.12502
lthumb 6.39652 41.0375
rfemur -34.6913 1.79538 17.2959
rtibia 31.4301
rfoot -38.6734 -22.2935
rtoes -12.701
lfemur 19.885 -0.451766 -20.0442
ltibia -3.18055e-015
lfoot -4.01706 42.0397
ltoes -23.4709
1014
root -30.744 16.8253 10.634 186.08 -35.7598 -183.895
lowerback 4.92103 -5.76499 -8.40962
upperback -3.6576 -8.53934 -1.00605
thorax -5.54382 -3.95258 4.34938
lowerneck 1.63866 -5.19045 -3.79835
upperneck 1.89953 -7.15251 5.96326
head 0.69355 -3.61908 2.50552
rclavicle -1.78409e-014 -1.98785e-014
rhumerus -40.2551 -7.62642 -50.1342
rradius 32.6885
rwrist 0.118441
rhand -18.2426 -14.589
rfingers 7.12502
rthumb 8.03617 -44.4162
lclavicle -1.78409e-014 -1.98785e-014
lhumerus 9.1143 -14.2634 60.0397
lradius 54.8731
lwrist 24.7113
lhand -19.679 11.0568
lfingers 7.12502
lthumb 6.64973 40.9324
rfemur -34.0911 2.0209 16.6464
rtibia 31.5765
rfoot -38.8715 -22.8055
rtoes -12.0707
lfemur 20.2847 -0.161731 -20.5089
ltibia 2.22639e-014
lfoot -4.2403 41.3924
ltoes -23.4497
